<svg xmlns="http://www.w3.org/2000/svg" width="140" height="37" viewBox="0 0 140 37" fill="none">
  <path d="M1.08894 18.9162C1.81489 17.361 2.81097 16.1946 4.07718 15.417C5.34338 14.6394 6.7953 14.2421 8.43292 14.2421C11.3199 14.2421 13.5399 15.3409 15.0763 17.53L15.5659 17.1074C15.1016 16.4059 14.8061 15.7044 14.6711 15.0113C14.5445 14.3098 14.4769 13.5153 14.4769 12.6278V6.85492H20.1749V33.9104H14.7217V31.0705H14.1308C13.9873 31.9579 13.4471 32.7356 12.4848 33.3948C11.5309 34.0625 10.3322 34.3922 8.88031 34.3922C2.96292 34.3922 0 31.1043 0 24.52C0.00844136 22.3393 0.37142 20.463 1.08894 18.9162ZM7.12451 28.9067C7.97709 30.0055 9.10823 30.5549 10.5348 30.5549C11.8179 30.5549 12.8055 30.1069 13.5062 29.211C14.2068 28.3151 14.5529 27.1486 14.5529 25.7287V23.4212C14.5529 21.7392 14.2068 20.4376 13.5062 19.5163C12.8055 18.595 11.8601 18.1302 10.6783 18.1302C9.30238 18.1302 8.15436 18.6711 7.23425 19.7361C6.31414 20.8095 5.84986 22.3478 5.84986 24.3594C5.84142 26.295 6.27193 27.8079 7.12451 28.9067ZM22.7832 19.0007C23.543 17.4878 24.6403 16.3045 26.0838 15.4508C27.5273 14.5971 29.2409 14.1745 31.2246 14.1745C34.3226 14.1745 36.6355 15.0789 38.1634 16.8877C39.6913 18.6964 40.451 21.1053 40.451 24.1143V25.6188H27.3753C27.5188 27.3261 27.9071 28.5686 28.5656 29.3631C29.2156 30.1576 30.1357 30.5549 31.3259 30.5549C32.3473 30.5549 33.1155 30.352 33.6135 29.9463C34.1115 29.5406 34.4661 28.9997 34.6771 28.3151H40.2737C39.9952 30.2083 39.0497 31.6959 37.4459 32.7778C35.842 33.8597 33.7401 34.4091 31.1571 34.4091C28.1013 34.4091 25.7546 33.4963 24.117 31.679C22.4709 29.8618 21.6521 27.3853 21.6521 24.258C21.6437 22.2633 22.0235 20.5137 22.7832 19.0007ZM34.6434 22.3224V22.0773C34.5505 20.6743 34.2213 19.6008 33.6642 18.857C33.107 18.1132 32.2882 17.7414 31.2162 17.7414C28.9792 17.7414 27.6961 19.2712 27.3753 22.3224H34.6434ZM46.1152 28.3066C46.1574 29.0504 46.4444 29.6505 46.9509 30.1069C47.4658 30.5633 48.2593 30.7915 49.3313 30.7915C50.2599 30.7915 51.0027 30.6056 51.5514 30.2337C52.1001 29.8618 52.3702 29.3378 52.3702 28.6616C52.3702 28.053 52.2098 27.6051 51.8806 27.3177C51.5514 27.0303 50.9605 26.819 50.0995 26.7091L46.9846 26.2527C43.2367 25.7371 41.3542 23.8269 41.3542 20.5137C41.3542 19.3473 41.6412 18.2823 42.2321 17.3272C42.8146 16.3721 43.7094 15.6029 44.908 15.0366C46.1067 14.4619 47.584 14.183 49.3313 14.183C51.754 14.183 53.628 14.7155 54.9448 15.772C56.2617 16.837 56.9792 18.24 57.0974 19.9896H52.0663C52.0157 19.3557 51.754 18.8401 51.2813 18.4344C50.8001 18.0287 50.1417 17.8259 49.306 17.8259C48.445 17.8259 47.7781 18.0118 47.3138 18.3837C46.8496 18.7556 46.6132 19.2374 46.6132 19.8206C46.6132 20.3784 46.782 20.8264 47.1197 21.1476C47.4573 21.4772 48.0314 21.6885 48.8502 21.7815L52.1001 22.2041C55.8058 22.669 57.6545 24.5623 57.6545 27.8755C57.6545 29.9717 56.8948 31.5945 55.3669 32.744C53.839 33.885 51.8215 34.4598 49.306 34.4598C46.5794 34.4598 44.5282 33.902 43.1522 32.7778C41.7763 31.6621 41.0166 30.1745 40.8815 28.332H46.1152V28.3066V28.3066ZM59.0473 6.85492H64.6777V18.5781C64.6777 19.4656 64.6102 20.2601 64.4836 20.9616C64.3569 21.6632 64.0615 22.3647 63.5888 23.0578L64.0784 23.4804L66.1718 20.894L71.2367 14.6309H77.2469L70.8146 22.1872L77.5592 33.9104H71.4055L66.9991 26.033L64.6608 28.9067V33.9104H59.0305V6.85492H59.0473ZM78.3781 6.85492H84.076V12.6278C84.076 13.5153 84.0084 14.3098 83.8818 15.0113C83.7552 15.7128 83.4597 16.4144 82.987 17.1074L83.4766 17.53C85.1987 15.3409 87.4103 14.2421 90.12 14.2421C92.6355 14.2421 94.5939 15.0451 95.9952 16.6595C97.3964 18.2738 98.0886 20.7926 98.0886 24.2157C98.0886 27.5036 97.3627 30.0224 95.9023 31.772C94.442 33.5216 92.3654 34.4006 89.6642 34.4006C88.2207 34.4006 87.022 34.071 86.0597 33.4033C85.1058 32.7356 84.5571 31.9664 84.4136 31.0789H83.8227V33.9104H78.3696L78.3781 6.85492ZM85.013 29.118C85.6883 30.0731 86.6675 30.5549 87.9506 30.5549C89.259 30.5549 90.2973 30.0139 91.0823 28.9236C91.8589 27.8417 92.2557 26.295 92.2557 24.2834C92.2557 22.2802 91.8758 20.7503 91.1161 19.7023C90.3563 18.6542 89.2927 18.1302 87.9168 18.1302C86.7519 18.1302 85.8065 18.5866 85.0889 19.491C84.363 20.4038 84.0084 21.6463 84.0084 23.2353V25.2976C84 26.8866 84.3377 28.1545 85.013 29.118ZM99.5912 14.6225H105.289V33.9104H99.5912V14.6225ZM108.016 14.6225H113.401C113.401 15.51 113.334 16.3045 113.207 17.006C113.08 17.7075 112.785 18.4091 112.312 19.1022L112.802 19.5248L113.604 18.4429C114.304 17.5131 114.912 16.7778 115.419 16.2369C115.934 15.7044 116.575 15.248 117.36 14.8761C118.137 14.5042 119.082 14.3182 120.171 14.3182V19.491H119.158C117.757 19.491 116.702 19.5586 115.993 19.7023C115.284 19.8459 114.727 20.184 114.313 20.7334C113.908 21.2828 113.705 22.1534 113.705 23.3367V33.9104H108.007L108.016 14.6225ZM119.834 24.5285C119.834 22.3393 120.197 20.463 120.914 18.9078C121.64 17.3526 122.636 16.1861 123.902 15.4085C125.169 14.6309 126.62 14.2337 128.258 14.2337C131.145 14.2337 133.365 15.3325 134.901 17.5216L135.391 17.099C134.927 16.3975 134.631 15.6959 134.496 15.0028C134.37 14.3013 134.302 13.5068 134.302 12.6193V6.85492H140V33.9104H134.547V31.0705H133.956C133.812 31.9579 133.272 32.7356 132.31 33.3948C131.356 34.0625 130.157 34.3922 128.705 34.3922C122.788 34.4006 119.834 31.1127 119.834 24.5285ZM126.941 28.9067C127.794 30.0055 128.925 30.5549 130.352 30.5549C131.635 30.5549 132.622 30.1069 133.323 29.211C134.024 28.3151 134.37 27.1486 134.37 25.7287V23.4212C134.37 21.7392 134.024 20.4376 133.323 19.5163C132.622 18.595 131.677 18.1302 130.495 18.1302C129.119 18.1302 127.971 18.6711 127.051 19.7361C126.131 20.8095 125.667 22.3478 125.667 24.3594C125.667 26.295 126.097 27.8079 126.941 28.9067Z" fill="black"/>
  <path d="M99.7067 6.9895H105.575L99.7067 12.4162V6.9895Z" fill="#7646FF"/>
</svg>
