<svg xmlns="http://www.w3.org/2000/svg" xmlns:xlink="http://www.w3.org/1999/xlink" viewBox="0 0 300 300" width="250" height="165" preserveAspectRatio="xMidYMid meet" ><defs><clipPath id="__lottie_element_13"><rect width="300" height="300" x="0" y="0"></rect></clipPath></defs><g transform="matrix(1,0,0,1,148.5,99.5790023803711)" opacity="1" style="display: block;"><g opacity="1" transform="matrix(1,0,0,1,0,0)"><path fill="rgb(0,0,0)" fill-opacity="1" d=" M10,52.6150016784668 C10,52.6150016784668 -14.123000144958496,77.3290023803711 -14.123000144958496,77.3290023803711 C-14.123000144958496,77.3290023803711 -14.154999732971191,77.3290023803711 -14.154999732971191,77.3290023803711 C-14.154999732971191,77.3290023803711 -14.404999732971191,52.6150016784668 -14.404999732971191,52.6150016784668 C-14.404999732971191,52.6150016784668 -48.48899841308594,52.6150016784668 -48.48899841308594,52.6150016784668 C-57.87799835205078,52.6150016784668 -66.5270004272461,50.30400085449219 -74.43699645996094,45.6510009765625 C-82.34700012207031,40.99800109863281 -88.58499908447266,34.7400016784668 -93.1510009765625,26.844999313354492 C-97.71700286865234,18.98200035095215 -100,10.413000106811523 -100,1.2029999494552612 C-100,-8.006999969482422 -97.71700286865234,-16.542999267578125 -93.11900329589844,-24.4060001373291 C-88.5530014038086,-32.236000061035156 -82.31500244140625,-38.49399948120117 -74.40499877929688,-43.14699935913086 C-66.5270004272461,-47.79999923706055 -57.87799835205078,-50.111000061035156 -48.457000732421875,-50.111000061035156 C-48.457000732421875,-50.111000061035156 7.7170000076293945,-50.111000061035156 7.7170000076293945,-50.111000061035156 C7.7170000076293945,-50.111000061035156 20.354000091552734,-75.0790023803711 20.354000091552734,-75.0790023803711 C20.354000091552734,-75.0790023803711 20.354000091552734,-50.2400016784668 20.354000091552734,-50.2400016784668 C20.354000091552734,-50.2400016784668 72.28299713134766,-75.0790023803711 72.28299713134766,-75.0790023803711 C72.28299713134766,-75.0790023803711 52.733001708984375,-49.95100021362305 52.733001708984375,-49.95100021362305 C61.415000915527344,-49.244998931884766 69.35600280761719,-46.516998291015625 76.55899810791016,-41.79999923706055 C83.76200103759766,-37.04999923706055 89.4540023803711,-30.888999938964844 93.66600036621094,-23.315000534057617 C97.87799835205078,-15.741000175476074 100,-7.558000087738037 100,1.2029999494552612 C100,10.510000228881836 97.68499755859375,19.077999114990234 93.08699798583984,26.972999572753906 C88.45700073242188,34.86800003051758 82.21900177001953,41.09400177001953 74.37300109863281,45.71500015258789 C66.5270004272461,50.30400085449219 57.94200134277344,52.6150016784668 48.617000579833984,52.6150016784668 C48.617000579833984,52.6150016784668 10,52.6150016784668 10,52.6150016784668z M-82.15399932861328,-17.601999282836914 C-85.52999877929688,-11.890000343322754 -87.2030029296875,-5.664000034332275 -87.2030029296875,1.0750000476837158 C-87.2030029296875,7.877999782562256 -85.52999877929688,14.168999671936035 -82.15399932861328,19.881000518798828 C-78.77799987792969,25.593000411987305 -74.18000030517578,30.118000030517578 -68.42400360107422,33.487998962402344 C-62.63600158691406,36.858001708984375 -56.39799880981445,38.5260009765625 -49.645999908447266,38.5260009765625 C-42.797000885009766,38.5260009765625 -36.527000427246094,36.858001708984375 -30.804000854492188,33.487998962402344 C-25.08099937438965,30.149999618530273 -20.54599952697754,25.593000411987305 -17.170000076293945,19.881000518798828 C-13.793999671936035,14.168999671936035 -12.121999740600586,7.910999774932861 -12.121999740600586,1.0750000476837158 C-12.121999740600586,-5.664000034332275 -13.793999671936035,-11.890000343322754 -17.170000076293945,-17.601999282836914 C-20.54599952697754,-23.31399917602539 -25.08099937438965,-27.839000701904297 -30.804000854492188,-31.208999633789062 C-36.527000427246094,-34.57899856567383 -42.797000885009766,-36.24800109863281 -49.645999908447266,-36.24800109863281 C-56.39799880981445,-36.24800109863281 -62.667999267578125,-34.57899856567383 -68.42400360107422,-31.208999633789062 C-74.21199798583984,-27.839000701904297 -78.77799987792969,-23.31399917602539 -82.15399932861328,-17.601999282836914z M-60.57899856567383,12.114999771118164 C-62.540000915527344,8.744999885559082 -63.505001068115234,5.053999900817871 -63.505001068115234,1.0750000476837158 C-63.505001068115234,-2.936000108718872 -62.540000915527344,-6.59499979019165 -60.611000061035156,-9.996999740600586 C-58.68199920654297,-13.335000038146973 -56.01300048828125,-15.996999740600586 -52.637001037597656,-17.954999923706055 C-49.26100158691406,-19.913000106811523 -45.5629997253418,-20.875999450683594 -41.57600021362305,-20.875999450683594 C-37.94300079345703,-20.875999450683594 -34.566001892089844,-20.009000778198242 -31.44700050354004,-18.34000015258789 C-32.507999420166016,-17.79400062561035 -33.375999450683594,-16.993000030517578 -34.05099868774414,-15.934000015258789 C-34.72600173950195,-14.875 -35.04800033569336,-13.654999732971191 -35.04800033569336,-12.33899974822998 C-35.04800033569336,-10.574000358581543 -34.404998779296875,-9.001999855041504 -33.11899948120117,-7.685999870300293 C-31.83300018310547,-6.369999885559082 -30.256999969482422,-5.696000099182129 -28.392000198364258,-5.696000099182129 C-27.04199981689453,-5.696000099182129 -25.851999282836914,-6.048999786376953 -24.791000366210938,-6.755000114440918 C-23.697999954223633,-7.460999965667725 -22.926000595092773,-8.392000198364258 -22.378999710083008,-9.54699993133545 C-20.513999938964844,-6.369999885559082 -19.582000732421875,-2.808000087738037 -19.582000732421875,1.0750000476837158 C-19.582000732421875,5.085999965667725 -20.547000885009766,8.744999885559082 -22.507999420166016,12.114999771118164 C-24.437000274658203,15.45300006866455 -27.106000900268555,18.114999771118164 -30.48200035095215,20.072999954223633 C-33.858001708984375,22.0310001373291 -37.555999755859375,22.993999481201172 -41.542999267578125,22.993999481201172 C-45.5620002746582,22.993999481201172 -49.229000091552734,22.0310001373291 -52.60499954223633,20.072999954223633 C-55.98099899291992,18.14699935913086 -58.61800003051758,15.484999656677246 -60.57899856567383,12.114999771118164z M-6.077000141143799,29.12299919128418 C-8.32800006866455,33.29499816894531 -10.899999618530273,36.472999572753906 -13.729999542236328,38.6870002746582 C-13.729999542236328,38.6870002746582 12.862000465393066,38.6870002746582 12.862000465393066,38.6870002746582 C9.935999870300293,36.472999572753906 7.298999786376953,33.29499816894531 4.88700008392334,29.12299919128418 C2.507999897003174,24.951000213623047 1.093000054359436,20.683000564575195 0.6430000066757202,16.35099983215332 C0.6430000066757202,16.35099983215332 -2.0260000228881836,16.35099983215332 -2.0260000228881836,16.35099983215332 C-2.4760000705718994,20.71500015258789 -3.8259999752044678,24.951000213623047 -6.077000141143799,29.12299919128418z M12.894000053405762,-36.1510009765625 C12.894000053405762,-36.1510009765625 -13.729999542236328,-36.1510009765625 -13.729999542236328,-36.1510009765625 C-10.868000030517578,-33.9370002746582 -8.32800006866455,-30.72800064086914 -6.045000076293945,-26.58799934387207 C-3.7939999103546143,-22.416000366210938 -2.444000005722046,-18.148000717163086 -1.99399995803833,-13.815999984741211 C-1.99399995803833,-13.815999984741211 0.675000011920929,-13.815999984741211 0.675000011920929,-13.815999984741211 C1.093000054359436,-18.18000030517578 2.507999897003174,-22.416000366210938 4.920000076293945,-26.58799934387207 C7.298999786376953,-30.760000228881836 9.968000411987305,-33.9370002746582 12.894000053405762,-36.1510009765625z M16.07699966430664,-17.474000930786133 C12.701000213623047,-11.76200008392334 11.029000282287598,-5.535999774932861 11.029000282287598,1.2029999494552612 C11.029000282287598,8.005999565124512 12.732999801635742,14.29699993133545 16.07699966430664,20.009000778198242 C19.452999114990234,25.72100067138672 24.051000595092773,30.246000289916992 29.80699920654297,33.61600112915039 C35.595001220703125,36.986000061035156 41.83300018310547,38.654998779296875 48.584999084472656,38.654998779296875 C55.433998107910156,38.654998779296875 61.70500183105469,36.986000061035156 67.4280014038086,33.61600112915039 C73.1510009765625,30.277999877929688 77.68499755859375,25.72100067138672 81.06099700927734,20.009000778198242 C84.43699645996094,14.29699993133545 86.10900115966797,8.038999557495117 86.10900115966797,1.2029999494552612 C86.10900115966797,-5.535999774932861 84.43699645996094,-11.76200008392334 81.06099700927734,-17.474000930786133 C77.68499755859375,-23.18600082397461 73.1510009765625,-27.711000442504883 67.4280014038086,-31.08099937438965 C61.70500183105469,-34.45100021362305 55.433998107910156,-36.11899948120117 48.584999084472656,-36.11899948120117 C41.83300018310547,-36.11899948120117 35.5629997253418,-34.45100021362305 29.80699920654297,-31.08099937438965 C24.018999099731445,-27.711000442504883 19.452999114990234,-23.18600082397461 16.07699966430664,-17.474000930786133z M37.266998291015625,12.114999771118164 C35.305999755859375,8.744999885559082 34.340999603271484,5.053999900817871 34.340999603271484,1.0750000476837158 C34.340999603271484,-2.936000108718872 35.305999755859375,-6.59499979019165 37.23500061035156,-9.996999740600586 C39.16400146484375,-13.335000038146973 41.83300018310547,-15.996999740600586 45.20899963378906,-17.954999923706055 C48.584999084472656,-19.913000106811523 52.28300094604492,-20.875999450683594 56.27000045776367,-20.875999450683594 C59.90299987792969,-20.875999450683594 63.279998779296875,-20.009000778198242 66.39900207519531,-18.34000015258789 C65.33799743652344,-17.79400062561035 64.46900177001953,-16.993000030517578 63.79399871826172,-15.934000015258789 C63.11899948120117,-14.875 62.797000885009766,-13.654999732971191 62.797000885009766,-12.33899974822998 C62.797000885009766,-10.574000358581543 63.472999572753906,-9.001999855041504 64.79100036621094,-7.685999870300293 C66.10900115966797,-6.369999885559082 67.68499755859375,-5.696000099182129 69.4530029296875,-5.696000099182129 C70.8030014038086,-5.696000099182129 71.99400329589844,-6.048999786376953 73.05500030517578,-6.755000114440918 C74.11599731445312,-7.460999965667725 74.98400115966797,-8.392000198364258 75.59500122070312,-9.54699993133545 C77.36299896240234,-6.27400016784668 78.26399993896484,-2.74399995803833 78.26399993896484,1.0750000476837158 C78.26399993896484,5.085999965667725 77.29900360107422,8.744999885559082 75.33799743652344,12.114999771118164 C73.40899658203125,15.45300006866455 70.73899841308594,18.114999771118164 67.36299896240234,20.072999954223633 C63.98699951171875,22.0310001373291 60.28900146484375,22.993999481201172 56.301998138427734,22.993999481201172 C52.28300094604492,22.993999481201172 48.617000579833984,22.0310001373291 45.24100112915039,20.072999954223633 C41.89699935913086,18.14699935913086 39.22800064086914,15.484999656677246 37.266998291015625,12.114999771118164z"></path></g></g></svg>
